PathFileType  4	(X/Y/Z) C:\Users\antoi\Documents\MyRepositories\mobilecap\ResultsAnalysis
DataRate	CameraRate	NumFrames	NumMarkers	Units	OrigDataRate	OrigDataStartFrame	OrigNumFrames
100.0	100.0	4	51	mm	100.0	1	231
Frame#	Time	r_knee			r_shank_antsup			r_ankle			r_calc			r_5meta			r_toe			L_knee			L_shank_antsup			L_ankle			L_calc			L_5meta			L_toe			r_sh2			r_sh3			r_sh4			L_sh2			L_sh3			r_thigh1			r_thigh2			r_thigh3			r_thigh4			r_thigh5			L_thigh1			L_thigh2			L_thigh3			L_thigh4			r.ASIS			r.PSIS			L.ASIS			L.PSIS			C7			R_Shoulder			L_Shoulder			R_Sternum			L_Sternum			R_humerus			R_elbow_med			R_elbow_lat			R_forearm			R_wrist_radius			R_wrist_ulna			L_humerus			L_elbow_med			L_elbow_lat			L_forearm			L_wrist_radius			L_wrist_ulna			R_HJC			L_HJC			R_HJC_reg			L_HJC_reg			
		X1	Y1	Z1	X2	Y2	Z2	X3	Y3	Z3	X4	Y4	Z4	X5	Y5	Z5	X6	Y6	Z6	X7	Y7	Z7	X8	Y8	Z8	X9	Y9	Z9	X10	Y10	Z10	X11	Y11	Z11	X12	Y12	Z12	X13	Y13	Z13	X14	Y14	Z14	X15	Y15	Z15	X16	Y16	Z16	X17	Y17	Z17	X18	Y18	Z18	X19	Y19	Z19	X20	Y20	Z20	X21	Y21	Z21	X22	Y22	Z22	X23	Y23	Z23	X24	Y24	Z24	X25	Y25	Z25	X26	Y26	Z26	X27	Y27	Z27	X28	Y28	Z28	X29	Y29	Z29	X30	Y30	Z30	X31	Y31	Z31	X32	Y32	Z32	X33	Y33	Z33	X34	Y34	Z34	X35	Y35	Z35	X36	Y36	Z36	X37	Y37	Z37	X38	Y38	Z38	X39	Y39	Z39	X40	Y40	Z40	X41	Y41	Z41	X42	Y42	Z42	X43	Y43	Z43	X44	Y44	Z44	X45	Y45	Z45	X46	Y46	Z46	X47	Y47	Z47	X48	Y48	Z48	X49	Y49	Z49	X50	Y50	Z50	X51	Y51	Z51	

1	0.00000000	-1134.93820	775.01195	-444.93323	-1130.43076	702.14977	-422.62080	-1176.14931	399.50307	-464.02020	-1245.23548	363.00208	-500.68901	-1074.27590	352.76822	-435.36575	-1031.33280	372.83546	-491.40266	-1156.14606	770.78966	-727.64269	-1133.90537	709.95585	-734.04572	-1179.46427	402.34063	-731.13069	-1249.07316	365.49543	-686.15832	-1086.62908	351.33478	-759.20044	-1037.85832	373.42881	-703.32548	-1140.89750	589.98390	-421.16898	-1205.34473	706.67701	-433.42859	-1222.38312	592.51198	-434.70580	-1221.32457	721.63740	-753.52073	-1222.31948	599.63869	-761.45821	-1041.02477	1080.45519	-448.33383	-1043.01126	967.04576	-442.71122	-1093.54090	945.69804	-403.27142	-1139.47692	1084.22307	-388.92722	-1146.68999	966.76057	-401.57280	-1062.44823	1047.28660	-751.04028	-1073.16644	908.70398	-743.63254	-1177.35189	1054.31006	-770.29190	-1181.43084	913.80431	-755.33072	-1048.07725	1229.37830	-459.42880	-1232.46977	1246.48728	-534.51231	-1045.86475	1217.03186	-717.75429	-1235.41864	1238.76802	-641.26658	-1164.54009	1712.29545	-588.16724	-1106.41513	1649.43586	-436.08642	-1102.52885	1656.53123	-756.40884	-1057.47011	1619.52087	-573.25909	-1056.66894	1619.07859	-614.86653	-1093.60337	1404.36992	-371.09582	-1144.94792	1303.38318	-422.49307	-1119.71946	1319.67307	-356.31886	-1056.21794	1213.27361	-353.28466	-1021.86131	1098.20531	-361.26322	-1060.50994	1087.91069	-343.02974	-1070.15319	1521.72986	-799.77105	-1136.91445	1312.87962	-756.08649	-1123.10540	1318.94071	-813.75672	-1061.34359	1227.31917	-830.78757	-1028.79088	1105.57386	-817.22905	-1062.31412	1093.71392	-830.71142	-1115.47249	1153.77547	-484.61390	-1111.92691	1147.01875	-684.76088	-1109.82630	1149.13493	-488.57440	-1114.52736	1136.82896	-658.76100	
2	0.01000000	-1133.92100	774.96511	-445.24378	-1129.35903	701.88058	-422.92936	-1176.32679	399.44294	-464.10145	-1245.40455	362.91430	-500.75063	-1074.32683	352.89777	-435.39441	-1031.46986	373.05020	-491.42818	-1155.77865	770.85144	-727.52740	-1133.44993	709.75404	-734.08152	-1179.63419	402.39223	-731.37812	-1249.24197	365.29859	-686.14363	-1086.74690	351.40206	-759.21949	-1037.99196	373.57683	-703.40985	-1140.06321	589.98907	-421.51031	-1204.22717	706.81153	-433.47073	-1221.59025	592.61985	-434.58141	-1220.85779	721.67233	-753.66711	-1221.80255	599.60058	-762.06009	-1041.13293	1080.34102	-448.19763	-1042.73582	966.97464	-442.71274	-1092.92727	945.52709	-403.50917	-1139.09970	1083.96225	-388.70983	-1146.24530	966.55986	-401.67044	-1062.48606	1047.26636	-751.35539	-1073.24255	908.71358	-743.47051	-1177.32024	1054.28467	-770.72100	-1181.46093	913.79582	-755.26919	-1047.82714	1229.66893	-459.28224	-1232.52154	1246.43387	-534.44665	-1045.93294	1216.93439	-717.68890	-1235.46864	1238.74551	-641.23517	-1164.71581	1712.39544	-588.46949	-1107.03720	1648.83189	-436.59756	-1102.37473	1656.26767	-756.20822	-1057.26367	1619.43301	-573.23254	-1056.46404	1618.98778	-614.77781	-1093.63428	1404.27114	-371.02275	-1144.92290	1303.31882	-422.44598	-1119.66953	1319.45279	-356.31532	-1056.08937	1213.17269	-353.22802	-1021.65596	1098.08843	-361.22326	-1060.18517	1087.92398	-342.90515	-1069.91812	1521.58308	-799.79475	-1137.11775	1312.88576	-756.16685	-1123.15148	1318.94026	-813.73972	-1061.38530	1227.29512	-830.61622	-1028.94102	1105.49715	-817.06899	-1062.36496	1093.68614	-830.56709	-1115.34117	1153.95684	-484.44770	-1111.88954	1146.94598	-684.58748	-1109.59639	1149.03741	-488.45313	-1114.29507	1136.77986	-658.70785	
3	0.02000000	-1132.91361	774.60850	-445.52566	-1128.19669	701.51269	-423.35358	-1176.52983	399.31757	-464.18099	-1245.51784	362.69019	-500.81152	-1074.45233	353.06288	-435.44702	-1031.60791	373.32969	-491.43114	-1155.28020	770.97732	-727.53208	-1132.83311	709.44048	-734.08251	-1179.80438	402.37059	-731.52855	-1249.42078	365.10751	-686.12647	-1086.84714	351.48631	-759.20459	-1038.08676	373.75789	-703.50584	-1139.35731	590.00977	-421.64880	-1202.83295	706.97885	-433.43548	-1220.85316	592.65418	-434.51446	-1220.21267	721.66451	-753.85090	-1221.24782	599.49555	-762.67036	-1041.30491	1080.15560	-448.00450	-1042.31370	966.84512	-442.83826	-1092.22972	945.38464	-403.61899	-1138.74478	1083.76833	-388.54137	-1145.61406	966.28345	-401.67731	-1062.49487	1047.33193	-750.95357	-1073.18893	908.77395	-743.05386	-1177.32993	1054.19308	-770.70220	-1181.39319	913.78475	-755.21606	-1047.79032	1229.69509	-459.21510	-1232.55202	1246.38318	-534.37686	-1046.00916	1216.88763	-717.61663	-1235.52742	1238.71466	-641.08980	-1164.38467	1712.34293	-588.61022	-1107.10240	1648.54080	-436.76216	-1102.23674	1656.05562	-755.98413	-1056.99105	1619.32796	-573.21196	-1056.19443	1618.90246	-614.67481	-1093.56570	1404.20823	-370.87850	-1144.90789	1303.24544	-422.37685	-1119.56515	1319.26847	-356.21340	-1055.95595	1213.10249	-353.20628	-1021.48534	1098.07928	-361.17466	-1059.92331	1087.88260	-342.72162	-1069.61757	1521.50084	-799.81304	-1136.04275	1313.01836	-755.53536	-1123.12222	1318.95726	-813.68471	-1061.40166	1227.26432	-830.55395	-1029.10281	1105.40790	-816.98002	-1062.48255	1093.66188	-830.53306	-1115.32557	1153.95970	-484.34896	-1111.93907	1146.90283	-684.48831	-1109.55417	1148.98384	-488.37519	-1114.30107	1136.74932	-658.62868	
4	0.03000000	-1131.95941	774.19882	-445.74737	-1126.90167	701.09732	-423.86797	-1176.75377	399.24506	-464.15286	-1245.58696	362.31259	-500.85515	-1074.60237	353.28392	-435.55230	-1031.76542	373.72528	-491.44918	-1154.56078	771.22391	-727.76495	-1132.04673	709.12274	-734.09789	-1179.95661	402.31610	-731.62249	-1249.58028	364.95995	-686.13602	-1086.92214	351.56407	-759.15165	-1038.14229	373.95306	-703.56037	-1138.64517	589.84737	-421.80282	-1201.32225	707.01624	-433.46407	-1220.18617	592.65516	-434.56711	-1219.29313	721.63949	-754.14040	-1220.76238	599.32487	-762.90292	-1041.34728	1079.93048	-447.84750	-1041.59324	966.75232	-443.47807	-1091.42818	945.29007	-403.63452	-1138.26221	1083.41391	-388.48733	-1144.84697	965.88173	-401.66686	-1062.39085	1047.44965	-750.19942	-1072.99073	908.87462	-742.48837	-1177.27426	1054.17915	-770.53324	-1181.16674	913.79456	-755.19547	-1047.78336	1229.66854	-459.18124	-1232.58262	1246.27486	-534.29031	-1046.07985	1216.91793	-717.47142	-1235.59219	1238.68688	-640.86747	-1163.73233	1712.16449	-588.62177	-1106.89068	1648.39675	-436.79637	-1102.01969	1655.92335	-755.82969	-1056.64939	1619.22244	-573.23308	-1055.86289	1618.82172	-614.62423	-1093.38502	1404.20342	-370.63989	-1144.78154	1303.14860	-422.35709	-1119.38934	1319.19330	-355.99973	-1055.79867	1213.07209	-353.22630	-1021.31763	1098.14965	-361.09553	-1059.75807	1087.80474	-342.54136	-1069.23106	1521.49453	-799.82613	-1135.11988	1313.13509	-754.97743	-1122.97584	1319.01794	-813.62143	-1061.38652	1227.22937	-830.58671	-1029.31171	1105.27068	-816.91484	-1062.70662	1093.62001	-830.61671	-1115.30218	1153.90874	-484.25590	-1111.97771	1146.90582	-684.39817	-1109.49148	1148.90461	-488.35128	-1114.29768	1136.78858	-658.53548	
